# xmcd CD database file generated by OrangeCD 5.2
#
# Track frame offsets:
#	183
#	10808
#	21503
#	31768
#	42953
#	53133
#	65113
#	77983
#	89013
#	99498
#	108898
#	120233
#	129038
#	139328
#	149738
#	160408
#	171673
#	180893
#	191228
#	202278
#	215703
#	225218
#	237523
#	247313
#	257543
#	266108
#	280593
#	289718
#	297163
#	305378
#
# Disc length: 4229 seconds
#
# Revision: 1
# Processed by: cddbd v1.5.1PL0 Copyright (c) Steve Scherf et al.
# Submitted via: OrangeCD 5.2
#
DISCID=c810831e
DTITLE=Leroy Van Dyke - Walk On By
DYEAR=1994
DGENRE=Country
TTITLE0=Walk On By
TTITLE1=If A Woman Answers
TTITLE2=Black Cloud
TTITLE3=Happy To Be Unhappy
TTITLE4=Night People
TTITLE5=Big Man In A Big House
TTITLE6=Faded Love
TTITLE7=Save Me The Moonlight
TTITLE8=My World Is Caving In
TTITLE9=Handful Of Friends
TTITLE10=I Got A Conscience
TTITLE11=A Broken Promise
TTITLE12=Dim Dark Corner
TTITLE13=I Sat Back And Let It Happen
TTITLE14=Geh' Nicht VorBei (German)
TTITLE15=Just Before Dawn
TTITLE16=Now I Lay Me Down
TTITLE17=Heartaches By The Number
TTITLE18=Sea Of Heartbreak
TTITLE19=Love Letters In The Sand
TTITLE20=Sugartime
TTITLE21=Don't Forbid Me
TTITLE22=Honeycomb
TTITLE23=How Long Must You Keep A Secret
TTITLE24=Party Doll
TTITLE25=Conscience I'm Guilty
TTITLE26=The Day The Preacher Comes
TTITLE27=Fireball Mail
TTITLE28=If You Don't, Somebody Else Will
TTITLE29=Put Your Little Hand In Mine
EXTD=
EXTT0=
EXTT1=
EXTT2=
EXTT3=
EXTT4=
EXTT5=
EXTT6=
EXTT7=
EXTT8=
EXTT9=
EXTT10=
EXTT11=
EXTT12=
EXTT13=
EXTT14=
EXTT15=
EXTT16=
EXTT17=
EXTT18=
EXTT19=
EXTT20=
EXTT21=
EXTT22=
EXTT23=
EXTT24=
EXTT25=
EXTT26=
EXTT27=
EXTT28=
EXTT29=
PLAYORDER=
